<svg width="30" height="30" viewBox="0 0 34 34" fill="none" xmlns="http://www.w3.org/2000/svg">
<path d="M5.66663 5.66663H8.35507C9.10502 5.66663 9.48 5.66663 9.75126 5.87842C10.0225 6.09022 10.1135 6.454 10.2954 7.18155L10.6461 8.58455C10.9412 9.76501 11.0888 10.3552 11.4799 10.7468C11.596 10.863 11.7259 10.9644 11.8668 11.0488C12.3414 11.3333 12.9498 11.3333 14.1666 11.3333V11.3333" stroke="#222222" stroke-width="2" stroke-linecap="round"/>
<path d="M25.5 24.0834H10.6971C9.96842 24.0834 9.60407 24.0834 9.36283 23.9347C9.13625 23.7951 8.97467 23.5709 8.91387 23.3118C8.84914 23.036 8.96435 22.6903 9.19479 21.999V21.999C9.44984 21.2339 9.57737 20.8513 9.81089 20.5661C10.0318 20.2964 10.3195 20.089 10.6453 19.9647C10.9896 19.8334 11.3929 19.8334 12.1994 19.8334H19.8333" stroke="#222222" stroke-width="2" stroke-linecap="round" stroke-linejoin="round"/>
<path d="M22.8472 19.8334H13.0275C12.0499 19.8334 11.2155 19.1265 11.0548 18.1622L10.2077 13.08C10.0553 12.1657 10.7604 11.3334 11.6873 11.3334H26.7153C27.4586 11.3334 27.9421 12.1157 27.6097 12.7806L24.6361 18.7278C24.2973 19.4054 23.6048 19.8334 22.8472 19.8334Z" stroke="#222222" stroke-width="2" stroke-linecap="round"/>
<circle cx="24.0833" cy="28.3333" r="1.41667" fill="#222222"/>
<circle cx="12.75" cy="28.3333" r="1.41667" fill="#222222"/>
</svg>
